<svg xmlns="http://www.w3.org/2000/svg" viewBox="0 0 152.65 150.5"><defs><style>.cls-1{fill:#fdd835;}.cls-2{fill:#f4a318;}.cls-3{fill:#0a1e74;}</style></defs><g id="图层_2" data-name="图层 2"><g id="图层_1-2" data-name="图层 1"><g id="组_1778" data-name="组 1778"><g id="组_1770" data-name="组 1770"><rect id="矩形_957-2" data-name="矩形 957-2" class="cls-1" x="90.92" width="30.13" height="30.13" rx="2.26"/></g><g id="组_1771" data-name="组 1771"><path id="路径_2468" data-name="路径 2468" class="cls-2" d="M2.52,99.84h21l1.79,23.8L8.94,118Z"/></g><g id="组_1772" data-name="组 1772"><path id="路径_2469" data-name="路径 2469" class="cls-2" d="M151,99.84h-21l-1.79,23.8,16.35-5.6Z"/></g><g id="组_1777" data-name="组 1777"><g id="组_1773" data-name="组 1773"><path id="路径_2470" data-name="路径 2470" class="cls-3" d="M100.8,150.5H52.86A30.92,30.92,0,0,1,22,119.62V70.48A30.93,30.93,0,0,1,52.86,39.59H100.8a30.93,30.93,0,0,1,30.88,30.89v49.14A30.92,30.92,0,0,1,100.8,150.5ZM52.86,44.64A25.87,25.87,0,0,0,27,70.48v49.14a25.88,25.88,0,0,0,25.85,25.84H100.8a25.88,25.88,0,0,0,25.84-25.84V70.48A25.87,25.87,0,0,0,100.8,44.64Z"/></g><g id="组_1774" data-name="组 1774"><path id="路径_2471" data-name="路径 2471" class="cls-3" d="M23.49,125.33C10.54,125.33,0,113.9,0,99.84S10.54,74.35,23.49,74.35A2.52,2.52,0,0,1,26,76.87h0a2.52,2.52,0,0,1-2.52,2.52C13.32,79.39,5,88.57,5,99.84s8.28,20.45,18.45,20.45a2.52,2.52,0,0,1,0,5Z"/></g><g id="组_1775" data-name="组 1775"><path id="路径_2472" data-name="路径 2472" class="cls-3" d="M129.16,125.33a2.51,2.51,0,0,1-2.52-2.51h0a2.52,2.52,0,0,1,2.52-2.52c10.17,0,18.45-9.17,18.45-20.45S139.33,79.4,129.16,79.4a2.53,2.53,0,0,1,0-5.05h0c13,0,23.49,11.44,23.49,25.5S142.11,125.33,129.16,125.33Z"/></g><g id="组_1776" data-name="组 1776"><path id="路径_2473" data-name="路径 2473" class="cls-3" d="M106,44.64a2.52,2.52,0,0,1-2.52-2.52h0v-24A2.51,2.51,0,0,1,106,15.63h0a2.51,2.51,0,0,1,2.52,2.51h0v24A2.52,2.52,0,0,1,106,44.64Z"/></g></g></g></g></g></svg>