<svg xmlns="http://www.w3.org/2000/svg" viewBox="0 0 305.95 174.63"><defs><style>.cls-1,.cls-8{fill:#8693ca;}.cls-1{opacity:0.5;}.cls-2,.cls-6{fill:none;}.cls-2,.cls-5,.cls-6{stroke:#03008a;stroke-linecap:round;stroke-linejoin:round;}.cls-2{stroke-width:5px;}.cls-3{fill:#db358d;}.cls-4,.cls-5{fill:#fdd835;}.cls-5,.cls-6{stroke-width:3.5px;}.cls-7{opacity:0.8;}</style></defs><g id="图层_2" data-name="图层 2"><g id="图层_1-2" data-name="图层 1"><path class="cls-1" d="M305.76,107.63c-.81-4.5-4.11-8.39-9.47-11.62-3.9,20.75-56.14,45.23-122.86,56.56-56.84,9.65-107.13,6.86-127.52-5.46a12.93,12.93,0,0,0,0,4.64c3.89,21.62,65.21,29.26,137,17.08S309.64,129.24,305.76,107.63Z"/><path class="cls-2" d="M2.73,145.52c-1.44-8.11,4-16.92,14.65-25.62"/><path class="cls-2" d="M281,77.93c8.26,4.13,13.34,9.38,14.45,15.64,4.48,25.23-57.41,57.32-138.25,71.66-52.65,9.34-100.34,8.86-128.44.41"/><rect class="cls-3" x="191.96" y="86.6" width="5.94" height="5.94"/><rect class="cls-3" x="76.23" y="132.85" width="5.94" height="5.94"/><rect class="cls-3" x="269.12" y="56.26" width="5.94" height="5.94"/><rect class="cls-4" x="161.52" y="65.16" width="36.38" height="11.87"/><polyline class="cls-5" points="31.72 56.26 31.72 71.85 22.82 71.85 22.82 98.84 31.72 98.84 31.72 142.32"/><polyline class="cls-5" points="43.59 56.26 43.59 65.85 67.33 65.85 67.33 77.03"/><rect class="cls-6" x="58.43" y="77.03" width="23.74" height="17.81"/><rect class="cls-6" x="43.59" y="77.03" width="14.84" height="17.81"/><line class="cls-5" x1="52.43" y1="94.84" x2="52.43" y2="106.71"/><line class="cls-5" x1="114.64" y1="56.26" x2="114.64" y2="88.9"/><polyline class="cls-5" points="43.59 106.71 67.33 106.71 67.33 142.32 43.59 142.32 82.17 124.51"/><line class="cls-5" x1="43.59" y1="118.58" x2="67.33" y2="118.58"/><line class="cls-5" x1="97" y1="65.16" x2="132.61" y2="65.16"/><line class="cls-5" x1="97" y1="77.03" x2="132.61" y2="77.03"/><line class="cls-5" x1="174.16" y1="94.84" x2="174.16" y2="139.35"/><line class="cls-5" x1="150.42" y1="127.48" x2="197.9" y2="127.48"/><line class="cls-5" x1="150.42" y1="139.35" x2="197.9" y2="139.35"/><line class="cls-5" x1="97" y1="88.9" x2="132.61" y2="88.9"/><line class="cls-5" x1="217.16" y1="65.16" x2="217.16" y2="134.87"/><line class="cls-5" x1="209.72" y1="65.16" x2="224.61" y2="65.16"/><line class="cls-5" x1="248.66" y1="56.26" x2="248.66" y2="137.7"/><line class="cls-5" x1="209.72" y1="97.49" x2="224.61" y2="97.49"/><line class="cls-5" x1="209.72" y1="136.07" x2="224.61" y2="136.07"/><polyline class="cls-5" points="102.94 88.9 102.94 97.81 132.61 97.81"/><polyline class="cls-6" points="97 100.77 97 109.68 123.71 109.68"/><polyline class="cls-5" points="150.42 100.77 150.42 115.61 197.9 115.61"/><polyline class="cls-5" points="114.81 112.89 114.81 145.54 102.94 145.54"/><polyline class="cls-6" points="102.94 118.58 102.94 133.42 97 133.42"/><polyline class="cls-5" points="126.68 118.58 126.68 133.42 132.61 133.42"/><polyline class="cls-6" points="189 88.9 150.42 88.9 150.42 65.16 197.9 65.16 197.9 84.59"/><line class="cls-5" x1="150.42" y1="77.03" x2="194.93" y2="77.03"/><polyline class="cls-6" points="233.51 88.9 233.51 103.74 242.41 103.74"/><polyline class="cls-5" points="257.25 97.81 266.15 97.81 266.15 82.97"/><polyline class="cls-5" points="242.41 112.64 242.41 127.48 233.51 127.48"/><polyline class="cls-6" points="257.25 109.68 257.25 133.42 269.12 133.42"/><polyline class="cls-6" points="266.15 65.16 266.15 74.07 233.51 74.07"/><rect class="cls-3" x="126.68" y="106.71" width="5.94" height="5.94"/><rect class="cls-3" x="7.98" y="148.58" width="14.51" height="14.51"/><g class="cls-7"><path class="cls-8" d="M18.86,24.34V0H32.72V4.87H23.48V9.74h9.24V14.6H23.48v9.74ZM32.72,4.87h4.63V9.74H32.72Z"/><path class="cls-8" d="M46.59,24.34V0h4.62V24.34Z"/><path class="cls-8" d="M60.46,0h4.62V4.87H60.46Zm0,19.47h4.62v4.87H60.46Zm4.62-14.6H69.7V9.74H65.08Zm0,9.73H69.7v4.87H65.08ZM69.7,9.74h4.62V14.6H69.7Zm4.62-4.87h4.62V9.74H74.32Zm0,9.73h4.62v4.87H74.32ZM78.94,0h4.63V4.87H78.94Zm0,19.47h4.63v4.87H78.94Z"/><path class="cls-8" d="M106.68,4.87H97.43V9.74h9.25V14.6H97.43v4.87h9.25v4.87H92.81V0h13.87Z"/><path class="cls-8" d="M120.55,19.47h9.24v4.87H115.92V0h4.63Z"/><path class="cls-8" d="M139,24.34V0H152.9V4.87h-9.24V9.74h9.24V14.6h-9.24v9.74ZM152.9,4.87h4.62V9.74H152.9Z"/><path class="cls-8" d="M171.39,19.47h9.24v4.87H166.77V0h4.62Z"/><path class="cls-8" d="M190,24.34V4.87h4.62V9.74h9.25V4.87h4.62V24.34h-4.62V14.6h-9.25v9.74ZM194.61,0V4.87h9.25V0Z"/><path class="cls-8" d="M217.61,24.34V0h4.62V24.34Zm4.62-19.47h4.63V9.74h-4.63Zm4.63,4.87h4.62V14.6h-4.62Zm4.62,4.86h4.62v4.87h-4.62Zm4.62,9.74V0h4.62V24.34Z"/><path class="cls-8" d="M263.83,4.87h-9.24V9.74h9.24V14.6h-9.24v4.87h9.24v4.87H250V0h13.86Z"/><path class="cls-8" d="M277.7,24.34V4.87h-4.62V0h13.86V4.87h-4.62V24.34Z"/></g></g></g></svg>