<svg xmlns="http://www.w3.org/2000/svg" viewBox="0 0 417.17 88.15"><defs><style>.cls-1{opacity:0.8;}.cls-2{fill:#0a1e74;}.cls-3{opacity:0.8;}</style></defs><g id="图层_2" data-name="图层 2"><g id="图层_1-2" data-name="图层 1"><g id="组_2107" data-name="组 2107"><g id="组_2093" data-name="组 2093" class="cls-1"><path id="路径_2616" data-name="路径 2616" class="cls-2" d="M0,69H4.13L6.82,79.24h0L8.87,69h4.86L15.8,79.24h0L18.47,69h4.12l-4.44,14.1H13.48l-2.17-9.85h0L9.16,83.12H4.49Z"/><path id="路径_2617" data-name="路径 2617" class="cls-2" d="M37.15,69a2.49,2.49,0,0,1,2,.86,3.33,3.33,0,0,1,.77,2.28v2.29a3.28,3.28,0,0,1-.77,2.28,2.49,2.49,0,0,1-2,.86H30.29v2.57H39.9v3H29.17a2.43,2.43,0,0,1-1.93-1,3.85,3.85,0,0,1-.79-2.43V72.45A3.85,3.85,0,0,1,27.24,70a2.43,2.43,0,0,1,1.93-1Zm-6.86,3v2.65H36V72Z"/><path id="路径_2618" data-name="路径 2618" class="cls-2" d="M44.54,64h3.83V83.12H44.54Z"/><path id="路径_2619" data-name="路径 2619" class="cls-2" d="M56.05,83.12a2.36,2.36,0,0,1-1.93-1,3.87,3.87,0,0,1-.79-2.43V72.44A3.73,3.73,0,0,1,54.12,70a2.44,2.44,0,0,1,1.93-1h10.2v3H57.16v8.16h9v3Z"/><path id="路径_2620" data-name="路径 2620" class="cls-2" d="M84.73,79.69a3.73,3.73,0,0,1-.79,2.43,2.43,2.43,0,0,1-1.93,1H73.34a2.51,2.51,0,0,1-2-1,3.6,3.6,0,0,1-.84-2.43V72.45A3.68,3.68,0,0,1,71.39,70a2.44,2.44,0,0,1,2-1H82a2.39,2.39,0,0,1,1.93,1,3.84,3.84,0,0,1,.79,2.42Zm-10.35.42H80.9V72H74.38Z"/><path id="路径_2621" data-name="路径 2621" class="cls-2" d="M98.29,72.08h-4.7v11H89.77V69h18.3A2.39,2.39,0,0,1,110,70a3.85,3.85,0,0,1,.79,2.43V83.13H107v-11H102.1l0,11H98.29Z"/><path id="路径_2622" data-name="路径 2622" class="cls-2" d="M126.72,69a2.5,2.5,0,0,1,1.95.86,3.33,3.33,0,0,1,.77,2.28v2.29a3.33,3.33,0,0,1-.77,2.28,2.5,2.5,0,0,1-1.95.86h-6.87v2.57h9.61v3H118.74a2.43,2.43,0,0,1-1.93-1,3.85,3.85,0,0,1-.79-2.43V72.45a3.85,3.85,0,0,1,.79-2.43,2.43,2.43,0,0,1,1.93-1Zm-6.87,3v2.65h5.76V72Z"/><path id="路径_2623" data-name="路径 2623" class="cls-2" d="M155.15,83.12h-4.6a2.73,2.73,0,0,1-2.71-2.76V72.08h-2.65V69h2.65V65.41h3.83V69h3.53v3.06h-3.53v8h3.48Z"/><path id="路径_2624" data-name="路径 2624" class="cls-2" d="M173.43,79.69a3.73,3.73,0,0,1-.79,2.43,2.43,2.43,0,0,1-1.93,1H162a2.51,2.51,0,0,1-1.95-1,3.59,3.59,0,0,1-.84-2.43V72.45a3.68,3.68,0,0,1,.84-2.42A2.44,2.44,0,0,1,162,69h8.67a2.39,2.39,0,0,1,1.93,1,3.84,3.84,0,0,1,.79,2.42Zm-10.35.42h6.52V72h-6.52Z"/><path id="路径_2625" data-name="路径 2625" class="cls-2" d="M199.54,83.12h-4.6a2.73,2.73,0,0,1-2.71-2.76V72.08h-2.65V69h2.65V65.41h3.84V69h3.53v3.06h-3.53v8h3.48Z"/><path id="路径_2626" data-name="路径 2626" class="cls-2" d="M212.9,73.44h-5.38v9.68h-3.83V64h3.83v6.5H214a2.5,2.5,0,0,1,1.93.88,3,3,0,0,1,.79,2.12v9.64H212.9Z"/><path id="路径_2627" data-name="路径 2627" class="cls-2" d="M232.32,69a2.5,2.5,0,0,1,2,.86,3.33,3.33,0,0,1,.77,2.28v2.29a3.33,3.33,0,0,1-.77,2.28,2.5,2.5,0,0,1-2,.86h-6.86v2.57h9.61v3H224.35a2.43,2.43,0,0,1-1.93-1,3.85,3.85,0,0,1-.79-2.43V72.45a3.85,3.85,0,0,1,.79-2.43,2.4,2.4,0,0,1,1.93-1Zm-6.87,3v2.65h5.75V72Z"/><path id="路径_2628" data-name="路径 2628" class="cls-2" d="M265.74,78.92a3.19,3.19,0,0,1-.79,2.15,2.33,2.33,0,0,1-.88.68A2.39,2.39,0,0,1,263,82h-7.29v6.18h-3.82V69H263a2.51,2.51,0,0,1,1.93.88,3.08,3.08,0,0,1,.79,2.17ZM261.91,72h-6.18v7h6.18Z"/><path id="路径_2629" data-name="路径 2629" class="cls-2" d="M275.05,65.73a2,2,0,0,1-2,2,1.85,1.85,0,0,1-1.41-.6,2.05,2.05,0,0,1-.59-1.41,2,2,0,0,1,2-2,1.95,1.95,0,0,1,2,2ZM271.13,69H275v14.1h-3.82Z"/><path id="路径_2630" data-name="路径 2630" class="cls-2" d="M279.13,69h4.22l3.11,4.19L289.6,69h4.25l-5.26,7,5.28,7.06h-4.22l-3.17-4.22-3.16,4.22H279.1l5.26-7.06Z"/><path id="路径_2631" data-name="路径 2631" class="cls-2" d="M308.42,69a2.52,2.52,0,0,1,2,.86,3.37,3.37,0,0,1,.76,2.28v2.29a3.32,3.32,0,0,1-.76,2.28,2.52,2.52,0,0,1-2,.86h-6.86v2.57h9.6v3H300.44a2.41,2.41,0,0,1-1.92-1,3.73,3.73,0,0,1-.79-2.43V72.45a3.73,3.73,0,0,1,.79-2.43,2.38,2.38,0,0,1,1.92-1Zm-6.86,3v2.65h5.75V72Z"/><path id="路径_2632" data-name="路径 2632" class="cls-2" d="M315.81,64h3.82V83.12h-3.82Z"/><path id="路径_2633" data-name="路径 2633" class="cls-2" d="M338.8,78.92a3.1,3.1,0,0,1-.79,2.15,2.25,2.25,0,0,1-.88.68,2.39,2.39,0,0,1-1.05.22H328.8v6.18H325V69h11.11a2.49,2.49,0,0,1,1.92.88,3.09,3.09,0,0,1,.8,2.17ZM335,72h-6.18v7H335Z"/><path id="路径_2634" data-name="路径 2634" class="cls-2" d="M344.14,64H348V83.12h-3.83Z"/><path id="路径_2635" data-name="路径 2635" class="cls-2" d="M353.06,72.3a3.28,3.28,0,0,1,.22-1.24,3.83,3.83,0,0,1,.62-1,2.43,2.43,0,0,1,2-1h7.63a2.42,2.42,0,0,1,1.93,1,3.47,3.47,0,0,1,.79,2.29v7.86h1.38v3H355.77a2.35,2.35,0,0,1-1.92-1,3.66,3.66,0,0,1-.6-1,3.92,3.92,0,0,1-.2-1.27Zm9.31,7.86V72h-5.48v8.17Z"/><path id="路径_2636" data-name="路径 2636" class="cls-2" d="M381.29,72.08h-5.43v11H372V69h10.34a2.39,2.39,0,0,1,1.93,1,3.85,3.85,0,0,1,.79,2.43V83.13h-3.81Z"/><path id="路径_2637" data-name="路径 2637" class="cls-2" d="M401,69a2.5,2.5,0,0,1,1.95.86,3.38,3.38,0,0,1,.77,2.28v2.29a3.38,3.38,0,0,1-.77,2.28,2.5,2.5,0,0,1-1.95.86h-6.87v2.57h9.61v3H393.05a2.43,2.43,0,0,1-1.93-1,3.85,3.85,0,0,1-.79-2.43V72.45a3.85,3.85,0,0,1,.79-2.43,2.43,2.43,0,0,1,1.93-1Zm-6.87,3v2.65h5.76V72Z"/><path id="路径_2638" data-name="路径 2638" class="cls-2" d="M417.11,83.12h-4.6a2.73,2.73,0,0,1-2.71-2.76V72.08h-2.65V69h2.65V65.41h3.84V69h3.53v3.06h-3.53v8h3.48Z"/></g><g id="组_2105" data-name="组 2105" class="cls-3"><g id="组_2094" data-name="组 2094"><path id="路径_2639" data-name="路径 2639" class="cls-2" d="M22.3,30.65a27.14,27.14,0,0,0,.4,5,12.3,12.3,0,0,0,1.1,3.4A16.3,16.3,0,0,0,25,35.22a29.25,29.25,0,0,0,.46-5.52v-11H16.76v-5H27.1a5.31,5.31,0,0,1,1.68.21,1.79,1.79,0,0,1,1,.68,3.11,3.11,0,0,1,.46,1.32A16,16,0,0,1,30.35,18v11.7a35.12,35.12,0,0,1-.61,6.71A21.6,21.6,0,0,1,28,41.77h2.87v5.08H26.63a6.73,6.73,0,0,1-2.75-.59,5.91,5.91,0,0,1-2.58.59H17.05V41.77h2.46a20.63,20.63,0,0,1-1.61-4.91,31.61,31.61,0,0,1-.56-6.21V20.31h5Zm24.83-9.83H38.26a8.88,8.88,0,0,1-2,5,5.21,5.21,0,0,1-3.92,1.54H31.22V21.87h.54A1.27,1.27,0,0,0,33,20.78a13.15,13.15,0,0,0,.31-3.37v-6.5h5.21v4.87H48.92a3.67,3.67,0,0,1,3.54,1.55,4.38,4.38,0,0,1-.4,4.08l-2.92,7-4.41-2.17ZM39,22.65h5.16V26.9c0,2.56.07,4.77.19,6.62a19,19,0,0,0,.79,4.61,5.61,5.61,0,0,0,1.71,2.69,4.72,4.72,0,0,0,3,.88h1.75V47H49.42a9.29,9.29,0,0,1-4.87-1.17,8.86,8.86,0,0,1-3.13-3.33,8.93,8.93,0,0,1-3.1,3.33A8.71,8.71,0,0,1,33.67,47h-2V41.69H33.3a4.49,4.49,0,0,0,2.85-.88,5.78,5.78,0,0,0,1.73-2.69,19.46,19.46,0,0,0,.86-4.6c.14-1.86.22-4.07.22-6.63Z"/><path id="路径_2640" data-name="路径 2640" class="cls-2" d="M102.92,47.41H79.3a8.41,8.41,0,0,1-3.06-.51,10,10,0,0,1-2.11-1.08,6.56,6.56,0,0,1-1.62-1.62L68,47.45l-3.25-4.38,5-3.37V28.24H65.7V23.41H71q4.13,0,4.13,4.33v9.58a7.93,7.93,0,0,0,.31,2.42,3.45,3.45,0,0,0,.94,1.52,3.5,3.5,0,0,0,1.6.79,10.29,10.29,0,0,0,2.35.22H102.9ZM72.21,21.7c-.3-.42-.71-.94-1.21-1.58l-1.56-2c-.54-.68-1.08-1.34-1.62-2s-1-1.2-1.36-1.64l4.17-3.25,5.88,7ZM87.38,36l-2.86,1.25c-.81.36-1.71.78-2.68,1.25a2.23,2.23,0,0,1-1.36.27A3.29,3.29,0,0,1,79,38.31a3.56,3.56,0,0,1-1.18-1.23,3.66,3.66,0,0,1-.48-2V12.33h5v.46a2.06,2.06,0,0,0,.85-.54,1.5,1.5,0,0,0,.36-1.05h3.83a15.37,15.37,0,0,1-.25,3,5.3,5.3,0,0,1-.83,2.06,3.47,3.47,0,0,1-1.57,1.21,6.75,6.75,0,0,1-2.39.44V32.54l4.5-2.13Zm.37-24.41h4.83v1.21h4.71A4.75,4.75,0,0,1,100.85,14,5.92,5.92,0,0,1,102,18.08V31.74a7.11,7.11,0,0,1-1.23,4.38A9,9,0,0,1,97,38.82l-2.87-4.7a4.94,4.94,0,0,0,2.09-1.29,3,3,0,0,0,.75-2V17.87H92.58V41.41H87.75Z"/><path id="路径_2641" data-name="路径 2641" class="cls-2" d="M123.08,33.66h5.33v1.75a15.57,15.57,0,0,1-.7,4.79,9.33,9.33,0,0,1-5.79,6.06,14.47,14.47,0,0,1-5.21.86h-1V42h1.17a6,6,0,0,0,4.66-1.65,6.91,6.91,0,0,0,1.5-4.81Zm8.58-1.42H116.21v-5h8.59l-1.3-1.56c-.44-.54-.88-1.06-1.31-1.56L121,22.74l-1-1.16,2.5-2.09H118v-5h13.63V11h5.42v3.53H151v5h-4.5l2.38,2c-.64.81-1.39,1.75-2.25,2.81s-1.71,2.08-2.55,3h8.67v5H137.08V47.41h-5.42Zm-4.45-5h4.45V19.49h-6.58L129.83,25ZM139,25.2c.75-.75,1.57-1.65,2.48-2.71s1.71-2.06,2.42-3h-6.84v7.79h4.24Zm7.21,10.29a7,7,0,0,0,1.47,4.81A5.92,5.92,0,0,0,152.32,42h1.17v5.16h-1a15.39,15.39,0,0,1-5.42-.86,9.49,9.49,0,0,1-3.61-2.38,9.25,9.25,0,0,1-2-3.69,17.07,17.07,0,0,1-.62-4.77V33.66h5.37Z"/><path id="路径_2642" data-name="路径 2642" class="cls-2" d="M179.41,36.66v3.58l2.81-.25,2.43-.22,1.87-.17,1.17-.1.08,5.07-2.27.19-3.91.33-4.75.42c-1.69.16-3.27.29-4.75.42s-2.79.24-3.92.35l-2.27.21-.46-5.08c.25,0,.65,0,1.21-.06l2-.16,2.6-.22,3-.25v-4H167V31.76h7.21V28.13l-2.37.19-2.38.19a2.27,2.27,0,0,1-1.56-.4,3,3,0,0,1-1-1.23,3.35,3.35,0,0,1-.34-1.56,2.38,2.38,0,0,1,.53-1.44q1.32-1.54,2.52-3.18c.79-1.1,1.54-2.19,2.23-3.27h-5.45v-5H187v5h-9.34c-.8,1.25-1.61,2.39-2.43,3.43a36.14,36.14,0,0,1-2.42,2.81l7.91-.41-1.66-3.34L183,18.38c.42.67.84,1.38,1.27,2.14l1.33,2.34c.44.79.86,1.57,1.26,2.35s.78,1.51,1.11,2.21l-4.17,2.16-.92-1.91-3.41.12v4h7.16v4.92Zm9.54-22h4.92V39.41H189Zm12.62-3.17V40.33a8.25,8.25,0,0,1-.31,2.37,6,6,0,0,1-1,1.94,8.58,8.58,0,0,1-1.81,1.7A18.48,18.48,0,0,1,195.7,48l-3-4.55a8.58,8.58,0,0,0,3-1.83,3.21,3.21,0,0,0,.81-2.17V11.49Z"/><path id="路径_2643" data-name="路径 2643" class="cls-2" d="M219.28,11.28h5v36h-4.79V29.65a8.13,8.13,0,0,1-2.29.33h-1.92V25.15h1.21a2.55,2.55,0,0,0,1.91-1,5,5,0,0,0,.89-3.31ZM234,11v1.84h10.95a3.82,3.82,0,0,1,2,.48,2.58,2.58,0,0,1,1.11,1.2,2.94,2.94,0,0,1,.21,1.55,2.71,2.71,0,0,1-.65,1.44l-1.08,1.12h.88a4.75,4.75,0,0,1,3.23,1,3.87,3.87,0,0,1,1.1,3.06v6.58h-1.95l1.45,2.29-2.87,1.59v1.08a9.75,9.75,0,0,0,.94,4.69,3,3,0,0,0,2.73,1.68h1.54V44.7h-1.2a7.12,7.12,0,0,1-5.84-2.5,11.64,11.64,0,0,1-2.25-6.92l-1.32.63a21,21,0,0,1,.75,5.58,5.86,5.86,0,0,1-1.69,4.23,8.23,8.23,0,0,1-5,2.14l-2.21-3.58a8.53,8.53,0,0,0,3.27-1,2,2,0,0,0,1.11-1.67V41a23,23,0,0,1-5.88,3.21A18.24,18.24,0,0,1,227,45.41h-1.32V41.78H227a12.22,12.22,0,0,0,2.83-.39,22,22,0,0,0,3.27-1.09,18.38,18.38,0,0,0,3.13-1.66,10.56,10.56,0,0,0,2.43-2.19l-.17-.71a14.39,14.39,0,0,1-5.11,2.85,19.64,19.64,0,0,1-6.22,1h-1.51V36h1.51a14.88,14.88,0,0,0,2.66-.25A16.48,16.48,0,0,0,232.5,35a11.27,11.27,0,0,0,2.37-1.21,6.85,6.85,0,0,0,1.79-1.69l-.33-.41a15.1,15.1,0,0,1-4.48,2,19.37,19.37,0,0,1-5,.65h-1.17V30.66h1.17a14,14,0,0,0,3.75-.54,10.2,10.2,0,0,0,3.54-1.75h-2v.79h-4.75V20.62h-1.71V16.29h1.67a2.25,2.25,0,0,0,1.25-.44,1.37,1.37,0,0,0,.62-1.19V11Zm3,13.54a7,7,0,0,0,.46-2.16h-5.38v2.16Zm-3.17-7.91a5.15,5.15,0,0,1-1,2h7.54l1.79-2Zm6.08,11.7a6.12,6.12,0,0,0-.39.5,5.72,5.72,0,0,1-.4.46,10.81,10.81,0,0,1,2,2.2l.21.05a.18.18,0,0,0,0,.16l.33.55c1-.48,2-1,3-1.46s1.93-1,2.85-1.55h-.33v-.91Zm2-6c0,.39-.06.76-.1,1.12a7.45,7.45,0,0,1-.19,1.05h5.46V22.4Z"/><path id="路径_2644" data-name="路径 2644" class="cls-2" d="M287,21.91v1.17h16v4h-9.71l1.54,1.7A28.58,28.58,0,0,1,291.44,31c-1.17.65-2.33,1.24-3.5,1.75s-2.31,1-3.44,1.38-2.18.75-3.18,1.06l9.91-.62-.83-.71,3.21-3.25c.59.47,1.25,1,2,1.64l2.29,1.92,2.27,1.92c.74.62,1.4,1.17,2,1.64l-3,3.42c-.39-.34-.83-.7-1.33-1.11s-1-.84-1.52-1.31l-4.79.09,2.5,1.08,3,1.29,3,1.27,2.61,1.06-1.75,4.34c-.84-.36-1.83-.79-3-1.27l-3.46-1.44c-1.15-.47-2.24-.92-3.25-1.36l-2.43-1,1.67-3.91-3.29.12v3.3a7.4,7.4,0,0,1-.21,1.81,3.87,3.87,0,0,1-.79,1.5,6.52,6.52,0,0,1-1.58,1.29A20.51,20.51,0,0,1,282,48.12l-2.75-3.75a16.73,16.73,0,0,0,2.25-1.1,1.66,1.66,0,0,0,.66-1.48V39.12l-4.41.21L279,42.42a17.09,17.09,0,0,1-2.08,1.18c-.92.46-1.93.93-3,1.42s-2.2,1-3.33,1.42-2.13.84-3,1.14l-1.79-4.33,2.06-.81c.74-.29,1.48-.6,2.23-.92l2.25-1c.75-.34,1.46-.67,2.13-1l-3.21.16a3.05,3.05,0,0,1-2.23-.56,2.41,2.41,0,0,1-.9-1.5,2.46,2.46,0,0,1,.42-1.69,2.56,2.56,0,0,1,1.67-1.08c.86-.2,1.81-.43,2.87-.71s2.16-.61,3.33-1l-3,.13a3,3,0,0,1-2-.57,2.65,2.65,0,0,1-1-1.39,2.24,2.24,0,0,1,.14-1.55,2,2,0,0,1,1.23-1c.48-.14,1.11-.35,1.9-.62s1.66-.63,2.6-1.05H265.93v-4h15.92V21.92H269.68V18.08h12.17V17H267.64V13h14.21V10.75H287V13h14.25V17H287v1.12h12.34v3.84Zm-3.62,5.87c-.81.39-1.68.76-2.63,1.11a23.17,23.17,0,0,1-3.16.89l7.54-.21a40.43,40.43,0,0,0,4.33-2.49h-6.71Z"/><path id="路径_2645" data-name="路径 2645" class="cls-2" d="M325,28.53v1.25h7.17V27.61h5.53v2.17H350.6v4.38H337.72v2.12h11.46v4.38H337.72v2.16h14.75v4.34H317V42.82h15.17V40.66H321.81V38.53a7.8,7.8,0,0,1-2.71.42h-2V34h1.71a1.27,1.27,0,0,0,.86-.37,1.51,1.51,0,0,0,.39-1.13v-4Zm18.87-.83v-1H325.14v1h-5.29V10.91h5.29v.92h19.08a15,15,0,0,1,2.13.12,4.09,4.09,0,0,1,1.55.5,2.48,2.48,0,0,1,1,1.1,4.62,4.62,0,0,1,.33,1.94V27.7Zm-18.95,6.46a6.33,6.33,0,0,1-.59,2.12h7.83V34.16Zm.2-18.5v1.66h18.75V15.66Zm0,7.16h18.75V21.16H325.14Z"/><path id="路径_2646" data-name="路径 2646" class="cls-2" d="M392.22,10.87v6h3.84L394.25,15c-.63-.63-1.18-1.16-1.65-1.61l3.09-2.87c.33.31.72.67,1.15,1.09l1.29,1.27,1.27,1.25,1.12,1.1-1.62,1.58h3.66v4.92H392.23v1.5a38.84,38.84,0,0,0,1.84,4.54c.88-.88,1.75-1.79,2.6-2.73s1.6-1.82,2.23-2.65l3.83,3.21q-1.32,1.43-3,3.13T396.4,32a34.62,34.62,0,0,0,3.25,4.37,33.57,33.57,0,0,0,4,3.87l-3.53,4.13a36.11,36.11,0,0,1-4.54-4.71,33.15,33.15,0,0,1-3.37-5.16v6.2a14.42,14.42,0,0,1-.21,2.46,5.47,5.47,0,0,1-.79,2,6.87,6.87,0,0,1-1.69,1.71,21,21,0,0,1-2.85,1.69L384,44.09a7.68,7.68,0,0,0,2.5-1.71,3.28,3.28,0,0,0,.75-2.25v-2.5q-1.67,1.29-3.21,2.52c-1,.82-2.19,1.77-3.5,2.86L378,38.92l.54,3.88c-.22,0-.65.12-1.27.27s-1.34.34-2.13.56l-2.54.71-2.58.71c-.82.22-1.56.43-2.21.63s-1.11.34-1.39.45L365.5,41l1.73-.4c.87-.2,1.86-.46,3-.77V30.76h-4V26h4V18.43h-3.87V13.59h12.12v4.84h-3.49V26h3.45v4.75h-3.45v7.79c.63-.16,1.22-.32,1.75-.48l1.16-.35.08.71c1-.67,1.86-1.27,2.65-1.79s1.55-1,2.25-1.55,1.42-1,2.13-1.54,1.48-1.13,2.31-1.8v-10h-8.46V16.84h8.46v-6Zm-9.05,21.66L382,30.81c-.49-.71-1-1.43-1.52-2.15s-1-1.42-1.5-2.08-.87-1.2-1.17-1.59l3.5-2.7,1.23,1.64,1.5,2c.51.7,1,1.38,1.48,2.05s.86,1.23,1.17,1.7Z"/></g><g id="组_2099" data-name="组 2099"><g id="组_2095" data-name="组 2095"><path id="路径_2647" data-name="路径 2647" class="cls-2" d="M29,58h0a29,29,0,0,1-11.06-2.19.5.5,0,0,1-.27-.65.51.51,0,0,1,.65-.27h0A27.79,27.79,0,0,0,29,57a.51.51,0,0,1,.51.5.47.47,0,0,1-.47.49ZM39.9,55.78a.51.51,0,0,1-.46-.31.51.51,0,0,1,.27-.65h0a27.85,27.85,0,0,0,9.07-6.07.49.49,0,0,1,.7,0h0a.48.48,0,0,1,0,.7,28.87,28.87,0,0,1-9.39,6.29.41.41,0,0,1-.19,0Zm-31-6.15a.5.5,0,0,1-.35-.14,28.74,28.74,0,0,1-6.3-9.39.49.49,0,0,1,.27-.64.5.5,0,0,1,.65.26,27.93,27.93,0,0,0,6.08,9.07.49.49,0,0,1,0,.69h0a.51.51,0,0,1-.35.15Zm46.44-9.27a.58.58,0,0,1-.19,0,.49.49,0,0,1-.27-.65A27.76,27.76,0,0,0,57,29v-.12a.49.49,0,0,1,.49-.49h0a.49.49,0,0,1,.49.49h0V29a28.93,28.93,0,0,1-2.19,11.09.51.51,0,0,1-.46.3ZM.5,29.5a.49.49,0,0,1-.5-.45V29a28.8,28.8,0,0,1,2.17-11,.5.5,0,0,1,.65-.27h0a.49.49,0,0,1,.27.64h0A27.74,27.74,0,0,0,1,29a.52.52,0,0,1-.49.53Zm54.76-11a.51.51,0,0,1-.46-.3,27.7,27.7,0,0,0-6.1-9,.49.49,0,0,1,0-.7h0a.49.49,0,0,1,.7,0h0a28.87,28.87,0,0,1,6.32,9.37.48.48,0,0,1-.26.64h0a.69.69,0,0,1-.2,0ZM8.79,9.39a.51.51,0,0,1-.35-.15.48.48,0,0,1,0-.7,29,29,0,0,1,9.37-6.31.5.5,0,0,1,.39.92,27.67,27.67,0,0,0-9,6.09A.51.51,0,0,1,8.79,9.39Zm31-6.27a.41.41,0,0,1-.19,0A28,28,0,0,0,29,1,.53.53,0,0,1,28.44.5a.46.46,0,0,1,.42-.5H29A28.84,28.84,0,0,1,40,2.16a.51.51,0,0,1,.27.65h0a.5.5,0,0,1-.45.3Z"/></g><g id="组_2096" data-name="组 2096"><path id="路径_2648" data-name="路径 2648" class="cls-2" d="M183.46,58h-.05a28.83,28.83,0,0,1-11-2.19.49.49,0,0,1-.27-.64h0a.51.51,0,0,1,.65-.27h0A27.79,27.79,0,0,0,183.43,57a.51.51,0,0,1,.51.5.48.48,0,0,1-.47.5Zm10.9-2.17a.5.5,0,0,1-.46-.31.49.49,0,0,1,.27-.65h0a27.92,27.92,0,0,0,9.06-6.07.5.5,0,0,1,.71,0,.49.49,0,0,1,0,.69h0a29.08,29.08,0,0,1-9.39,6.29.65.65,0,0,1-.19,0Zm-31-6.15a.52.52,0,0,1-.35-.14,28.9,28.9,0,0,1-6.3-9.39.5.5,0,0,1,.92-.38h0a27.88,27.88,0,0,0,6.08,9.07.48.48,0,0,1,0,.7.51.51,0,0,1-.35.15Zm46.44-9.27a.63.63,0,0,1-.19,0,.51.51,0,0,1-.27-.65h0A27.76,27.76,0,0,0,211.42,29v-.12a.49.49,0,0,1,.5-.49h0a.5.5,0,0,1,.5.49h0V29a29,29,0,0,1-2.21,11.1.49.49,0,0,1-.45.3ZM155,29.5a.49.49,0,0,1-.5-.45V29a28.81,28.81,0,0,1,2.18-11,.49.49,0,0,1,.91.37h0A28,28,0,0,0,155.44,29a.52.52,0,0,1-.49.54Zm54.76-11a.5.5,0,0,1-.45-.3,27.88,27.88,0,0,0-6.11-9,.5.5,0,0,1,0-.7.49.49,0,0,1,.7,0h0a28.56,28.56,0,0,1,6.32,9.37.48.48,0,0,1-.26.64h0a.63.63,0,0,1-.19,0ZM163.24,9.39a.51.51,0,0,1-.35-.15.5.5,0,0,1,0-.7h0a28.83,28.83,0,0,1,9.38-6.31.49.49,0,0,1,.64.27.5.5,0,0,1-.26.65,27.77,27.77,0,0,0-9.05,6.09A.48.48,0,0,1,163.24,9.39Zm31-6.27a.41.41,0,0,1-.19,0A28,28,0,0,0,183.43,1a.53.53,0,0,1-.54-.49.46.46,0,0,1,.42-.5h.11a28.84,28.84,0,0,1,11,2.16.51.51,0,0,1,.27.65.5.5,0,0,1-.45.3Z"/></g><g id="组_2097" data-name="组 2097"><path id="路径_2649" data-name="路径 2649" class="cls-2" d="M132,58h0a29,29,0,0,1-11.06-2.19.5.5,0,0,1-.27-.65h0a.51.51,0,0,1,.65-.27A27.79,27.79,0,0,0,132,57a.51.51,0,0,1,.51.5.47.47,0,0,1-.47.49Zm10.89-2.17a.51.51,0,0,1-.46-.31.51.51,0,0,1,.27-.65,28,28,0,0,0,9.07-6.07.49.49,0,0,1,.7,0h0a.49.49,0,0,1,0,.69h0a29.08,29.08,0,0,1-9.39,6.29.41.41,0,0,1-.19,0Zm-31-6.15a.5.5,0,0,1-.35-.14,28.84,28.84,0,0,1-6.3-9.39.48.48,0,0,1,.26-.64.49.49,0,0,1,.65.26,28,28,0,0,0,6.09,9.07.5.5,0,0,1,0,.7.51.51,0,0,1-.35.15Zm46.43-9.27a.63.63,0,0,1-.19,0,.5.5,0,0,1-.26-.65A27.94,27.94,0,0,0,159.93,29v-.12a.49.49,0,0,1,.5-.49h0a.5.5,0,0,1,.5.49h0V29a28.9,28.9,0,0,1-2.2,11.09.49.49,0,0,1-.46.3ZM103.46,29.5a.47.47,0,0,1-.49-.45V29a28.8,28.8,0,0,1,2.17-11,.51.51,0,0,1,.65-.27.49.49,0,0,1,.27.64h0A27.56,27.56,0,0,0,104,29a.53.53,0,0,1-.49.53Zm54.77-11a.51.51,0,0,1-.46-.3,27.85,27.85,0,0,0-6.1-9,.48.48,0,0,1,0-.7.49.49,0,0,1,.7,0h0a28.87,28.87,0,0,1,6.32,9.37.49.49,0,0,1-.26.64h0a.58.58,0,0,1-.19,0ZM111.76,9.39a.51.51,0,0,1-.35-.15.48.48,0,0,1,0-.7,28.79,28.79,0,0,1,9.37-6.31.5.5,0,0,1,.65.27.48.48,0,0,1-.26.64h0a27.67,27.67,0,0,0-9,6.09A.51.51,0,0,1,111.76,9.39Zm31-6.27a.46.46,0,0,1-.19,0A28,28,0,0,0,132,1a.53.53,0,0,1-.54-.49.46.46,0,0,1,.42-.5h.11a28.83,28.83,0,0,1,11,2.16.49.49,0,0,1-.18.95Z"/></g><g id="组_2098" data-name="组 2098"><path id="路径_2650" data-name="路径 2650" class="cls-2" d="M80.5,58h-.06a28.83,28.83,0,0,1-11-2.19.49.49,0,0,1-.27-.64h0a.49.49,0,0,1,.64-.27h0A27.79,27.79,0,0,0,80.46,57a.5.5,0,0,1,.51.5.48.48,0,0,1-.47.5Zm10.89-2.17a.5.5,0,0,1-.19-1h0a28.06,28.06,0,0,0,9.07-6.07.48.48,0,0,1,.7,0,.5.5,0,0,1,0,.7,29.08,29.08,0,0,1-9.39,6.29.65.65,0,0,1-.19,0Zm-31-6.15a.52.52,0,0,1-.36-.14,29,29,0,0,1-6.29-9.39.48.48,0,0,1,.26-.64h0a.5.5,0,0,1,.65.26h0a27.75,27.75,0,0,0,6.09,9.07.5.5,0,0,1,0,.7.53.53,0,0,1-.35.15Zm46.43-9.27a.63.63,0,0,1-.19,0,.5.5,0,0,1-.26-.65A27.94,27.94,0,0,0,108.45,29v-.12a.49.49,0,0,1,.5-.49h0a.5.5,0,0,1,.5.49h0V29a29,29,0,0,1-2.2,11.1.51.51,0,0,1-.46.3ZM52,29.5a.47.47,0,0,1-.49-.45V29a29,29,0,0,1,2.18-11,.49.49,0,1,1,.91.37A27.81,27.81,0,0,0,52.48,29a.54.54,0,0,1-.5.54Zm54.77-11a.51.51,0,0,1-.46-.3,27.85,27.85,0,0,0-6.1-9,.49.49,0,0,1,0-.7h0a.49.49,0,0,1,.7,0h0a28.87,28.87,0,0,1,6.32,9.37.49.49,0,0,1-.27.64h0a.63.63,0,0,1-.19,0ZM60.27,9.39a.51.51,0,0,1-.35-.15.5.5,0,0,1,0-.7A28.83,28.83,0,0,1,69.3,2.23a.49.49,0,0,1,.38.91h0a27.67,27.67,0,0,0-9.05,6.09A.53.53,0,0,1,60.27,9.39Zm31-6.27a.43.43,0,0,1-.19,0A28,28,0,0,0,80.46,1,.53.53,0,0,1,79.92.5a.46.46,0,0,1,.42-.5h.11a28.84,28.84,0,0,1,11,2.16.51.51,0,0,1,.27.65.52.52,0,0,1-.45.3Z"/></g></g><g id="组_2104" data-name="组 2104"><g id="组_2100" data-name="组 2100"><path id="路径_2651" data-name="路径 2651" class="cls-2" d="M233.76,58h0a28.93,28.93,0,0,1-11.06-2.19.5.5,0,1,1,.38-.92A27.71,27.71,0,0,0,233.73,57a.52.52,0,0,1,.51.5.48.48,0,0,1-.48.49Zm10.89-2.17a.5.5,0,0,1-.46-.31.51.51,0,0,1,.27-.65,28.06,28.06,0,0,0,9.07-6.07.48.48,0,0,1,.7,0,.5.5,0,0,1,0,.7,29.08,29.08,0,0,1-9.39,6.29.58.58,0,0,1-.19,0Zm-31-6.14a.47.47,0,0,1-.35-.15,28.8,28.8,0,0,1-6.3-9.38.49.49,0,1,1,.91-.38A28,28,0,0,0,214,48.79a.5.5,0,0,1,0,.7h0A.47.47,0,0,1,213.61,49.64Zm46.44-9.27a.41.41,0,0,1-.19,0,.49.49,0,0,1-.27-.65A27.86,27.86,0,0,0,261.71,29v-.12a.51.51,0,0,1,.49-.5h0a.49.49,0,0,1,.49.5h0V29a28.86,28.86,0,0,1-2.19,11.09.49.49,0,0,1-.46.3ZM205.24,29.5a.47.47,0,0,1-.5-.44V29a28.81,28.81,0,0,1,2.17-11,.5.5,0,1,1,.92.38A27.82,27.82,0,0,0,205.73,29a.53.53,0,0,1-.49.53Zm54.76-11a.5.5,0,0,1-.46-.31,28,28,0,0,0-6.1-9,.49.49,0,0,1,0-.7h0a.5.5,0,0,1,.7,0h0a29,29,0,0,1,6.32,9.37.5.5,0,0,1-.26.65.63.63,0,0,1-.19,0ZM213.53,9.39a.53.53,0,0,1-.35-.15.5.5,0,0,1,0-.7,29,29,0,0,1,9.38-6.31.49.49,0,0,1,.65.27.51.51,0,0,1-.27.65,27.77,27.77,0,0,0-9.05,6.09A.48.48,0,0,1,213.53,9.39Zm31-6.27a.43.43,0,0,1-.19,0A28,28,0,0,0,233.72,1a.53.53,0,0,1-.54-.49.46.46,0,0,1,.42-.5h.11a28.84,28.84,0,0,1,11,2.16.49.49,0,0,1,.27.64h0a.51.51,0,0,1-.45.3Z"/></g><g id="组_2101" data-name="组 2101"><path id="路径_2652" data-name="路径 2652" class="cls-2" d="M388.2,58h0a28.88,28.88,0,0,1-11.05-2.19.48.48,0,0,1-.27-.64h0a.49.49,0,0,1,.64-.27A27.79,27.79,0,0,0,388.17,57a.5.5,0,0,1,.51.5.47.47,0,0,1-.47.49Zm10.9-2.17a.5.5,0,0,1-.46-.31.49.49,0,0,1,.27-.65h0A27.92,27.92,0,0,0,408,48.75a.5.5,0,0,1,.71,0,.49.49,0,0,1,0,.69h0a29.08,29.08,0,0,1-9.39,6.29.58.58,0,0,1-.19,0Zm-31-6.15a.52.52,0,0,1-.35-.14,28.9,28.9,0,0,1-6.3-9.39.5.5,0,0,1,.92-.38h0a27.94,27.94,0,0,0,6.08,9.06.48.48,0,0,1,0,.7.46.46,0,0,1-.34.16Zm46.44-9.27a.58.58,0,0,1-.19,0,.51.51,0,0,1-.27-.65h0A27.76,27.76,0,0,0,416.16,29v-.12a.49.49,0,0,1,.49-.49h0a.49.49,0,0,1,.49.49h0V29a28.77,28.77,0,0,1-2.2,11.1.49.49,0,0,1-.45.3ZM359.69,29.5a.49.49,0,0,1-.5-.45V29a28.8,28.8,0,0,1,2.17-11,.5.5,0,0,1,.92.37h0A28,28,0,0,0,360.18,29a.53.53,0,0,1-.49.54Zm54.76-11a.48.48,0,0,1-.45-.3,27.88,27.88,0,0,0-6.11-9,.5.5,0,0,1,0-.7.49.49,0,0,1,.7,0h0a28.93,28.93,0,0,1,6.32,9.36.49.49,0,0,1-.26.65h0a.33.33,0,0,1-.17,0ZM368,9.39a.51.51,0,0,1-.36-.85h0A28.79,28.79,0,0,1,377,2.23a.5.5,0,1,1,.38.92,27.88,27.88,0,0,0-9.05,6.09A.47.47,0,0,1,368,9.39Zm31-6.27a.39.39,0,0,1-.18,0A28.09,28.09,0,0,0,388.18,1a.53.53,0,0,1-.54-.49.46.46,0,0,1,.42-.5h.11a28.83,28.83,0,0,1,11,2.16.49.49,0,0,1-.18.95Z"/></g><g id="组_2102" data-name="组 2102"><path id="路径_2653" data-name="路径 2653" class="cls-2" d="M336.72,58h0a28.88,28.88,0,0,1-11.05-2.19.48.48,0,0,1-.27-.64h0a.49.49,0,0,1,.64-.27A27.79,27.79,0,0,0,336.69,57a.5.5,0,0,1,.51.5.47.47,0,0,1-.47.49Zm10.9-2.17a.5.5,0,0,1-.46-.31.49.49,0,0,1,.27-.65h0a27.92,27.92,0,0,0,9.06-6.07.5.5,0,0,1,.71,0,.49.49,0,0,1,0,.69h0a29.08,29.08,0,0,1-9.39,6.29.65.65,0,0,1-.19,0Zm-31-6.15a.5.5,0,0,1-.35-.14,28.84,28.84,0,0,1-6.3-9.39.49.49,0,0,1,.91-.38h0a27.94,27.94,0,0,0,6.08,9.06.5.5,0,0,1,0,.7.48.48,0,0,1-.35.16ZM363,40.36a.58.58,0,0,1-.19,0,.51.51,0,0,1-.27-.65A27.76,27.76,0,0,0,364.68,29v-.12a.49.49,0,0,1,.49-.49h0a.49.49,0,0,1,.49.49h0V29a28.76,28.76,0,0,1-2.19,11.1.51.51,0,0,1-.46.3ZM308.21,29.5a.49.49,0,0,1-.5-.45V29a28.62,28.62,0,0,1,2.18-11,.48.48,0,0,1,.64-.27.49.49,0,0,1,.27.64h0A28,28,0,0,0,308.7,29a.52.52,0,0,1-.49.54Zm54.76-11a.48.48,0,0,1-.45-.3,27.88,27.88,0,0,0-6.11-9,.5.5,0,0,1,0-.7.49.49,0,0,1,.7,0h0a28.62,28.62,0,0,1,6.32,9.36.49.49,0,0,1-.26.65h0a.45.45,0,0,1-.2,0ZM316.5,9.39a.51.51,0,0,1-.35-.15.5.5,0,0,1,0-.7,28.83,28.83,0,0,1,9.38-6.31.49.49,0,0,1,.38.91h0a27.77,27.77,0,0,0-9.05,6.09A.48.48,0,0,1,316.5,9.39Zm31-6.27a.41.41,0,0,1-.19,0A28,28,0,0,0,336.7,1a.52.52,0,0,1-.54-.49.45.45,0,0,1,.42-.5h.1a28.84,28.84,0,0,1,11,2.16.5.5,0,0,1,.27.65.49.49,0,0,1-.45.3Z"/></g><g id="组_2103" data-name="组 2103"><path id="路径_2654" data-name="路径 2654" class="cls-2" d="M285.24,58h0a29,29,0,0,1-11.06-2.19.5.5,0,0,1-.27-.65.51.51,0,0,1,.65-.27A27.75,27.75,0,0,0,285.21,57a.51.51,0,0,1,.51.5.47.47,0,0,1-.47.49Zm10.89-2.17a.48.48,0,0,1-.45-.31.5.5,0,0,1,.26-.65h0A27.85,27.85,0,0,0,305,48.75a.49.49,0,1,1,.7.7,28.87,28.87,0,0,1-9.39,6.29.58.58,0,0,1-.19,0Zm-31-6.15a.5.5,0,0,1-.35-.14,28.74,28.74,0,0,1-6.3-9.39.48.48,0,0,1,.26-.64.49.49,0,0,1,.65.26,27.81,27.81,0,0,0,6.09,9.06.5.5,0,0,1,0,.7h0a.48.48,0,0,1-.35.16Zm46.44-9.27a.58.58,0,0,1-.19,0,.49.49,0,0,1-.27-.65A27.76,27.76,0,0,0,313.2,29v-.12a.49.49,0,0,1,.49-.49h0a.49.49,0,0,1,.49.49h0V29A28.94,28.94,0,0,1,312,40.06a.51.51,0,0,1-.46.3ZM256.73,29.5a.48.48,0,0,1-.5-.45V29a28.8,28.8,0,0,1,2.17-11,.5.5,0,0,1,.92.37A27.82,27.82,0,0,0,257.22,29a.52.52,0,0,1-.49.54Zm54.76-11a.48.48,0,0,1-.45-.3,27.88,27.88,0,0,0-6.11-9,.5.5,0,0,1,0-.7h0a.49.49,0,0,1,.7,0h0A28.93,28.93,0,0,1,312,17.77a.49.49,0,0,1-.26.65.48.48,0,0,1-.2,0ZM265,9.39a.53.53,0,0,1-.36-.15.5.5,0,0,1,0-.7A28.83,28.83,0,0,1,274,2.23a.5.5,0,0,1,.65.27.49.49,0,0,1-.27.65,27.77,27.77,0,0,0-9.05,6.09A.47.47,0,0,1,265,9.39Zm31-6.27a.39.39,0,0,1-.18,0A28.09,28.09,0,0,0,285.21,1a.53.53,0,0,1-.54-.49.46.46,0,0,1,.42-.5h.11a28.83,28.83,0,0,1,11,2.16.49.49,0,0,1-.18.95Z"/></g></g></g></g></g></g></svg>